<svg width="23" height="25" viewBox="0 0 23 25" fill="none" xmlns="http://www.w3.org/2000/svg">
<path d="M18.75 25C17.7083 25 16.8229 24.6354 16.0938 23.9062C15.3646 23.1771 15 22.2917 15 21.25C15 21.125 15.0312 20.8333 15.0938 20.375L6.3125 15.25C5.97917 15.5625 5.59375 15.8073 5.15625 15.9844C4.71875 16.1615 4.25 16.25 3.75 16.25C2.70833 16.25 1.82292 15.8854 1.09375 15.1562C0.364583 14.4271 0 13.5417 0 12.5C0 11.4583 0.364583 10.5729 1.09375 9.84375C1.82292 9.11458 2.70833 8.75 3.75 8.75C4.25 8.75 4.71875 8.83854 5.15625 9.01562C5.59375 9.19271 5.97917 9.4375 6.3125 9.75L15.0938 4.625C15.0521 4.47917 15.026 4.33854 15.0156 4.20312C15.0052 4.06771 15 3.91667 15 3.75C15 2.70833 15.3646 1.82292 16.0938 1.09375C16.8229 0.364583 17.7083 0 18.75 0C19.7917 0 20.6771 0.364583 21.4062 1.09375C22.1354 1.82292 22.5 2.70833 22.5 3.75C22.5 4.79167 22.1354 5.67708 21.4062 6.40625C20.6771 7.13542 19.7917 7.5 18.75 7.5C18.25 7.5 17.7812 7.41146 17.3438 7.23438C16.9062 7.05729 16.5208 6.8125 16.1875 6.5L7.40625 11.625C7.44792 11.7708 7.47396 11.9115 7.48438 12.0469C7.49479 12.1823 7.5 12.3333 7.5 12.5C7.5 12.6667 7.49479 12.8177 7.48438 12.9531C7.47396 13.0885 7.44792 13.2292 7.40625 13.375L16.1875 18.5C16.5208 18.1875 16.9062 17.9427 17.3438 17.7656C17.7812 17.5885 18.25 17.5 18.75 17.5C19.7917 17.5 20.6771 17.8646 21.4062 18.5938C22.1354 19.3229 22.5 20.2083 22.5 21.25C22.5 22.2917 22.1354 23.1771 21.4062 23.9062C20.6771 24.6354 19.7917 25 18.75 25ZM18.75 22.5C19.1042 22.5 19.401 22.3802 19.6406 22.1406C19.8802 21.901 20 21.6042 20 21.25C20 20.8958 19.8802 20.599 19.6406 20.3594C19.401 20.1198 19.1042 20 18.75 20C18.3958 20 18.099 20.1198 17.8594 20.3594C17.6198 20.599 17.5 20.8958 17.5 21.25C17.5 21.6042 17.6198 21.901 17.8594 22.1406C18.099 22.3802 18.3958 22.5 18.75 22.5ZM3.75 13.75C4.10417 13.75 4.40104 13.6302 4.64062 13.3906C4.88021 13.151 5 12.8542 5 12.5C5 12.1458 4.88021 11.849 4.64062 11.6094C4.40104 11.3698 4.10417 11.25 3.75 11.25C3.39583 11.25 3.09896 11.3698 2.85938 11.6094C2.61979 11.849 2.5 12.1458 2.5 12.5C2.5 12.8542 2.61979 13.151 2.85938 13.3906C3.09896 13.6302 3.39583 13.75 3.75 13.75ZM18.75 5C19.1042 5 19.401 4.88021 19.6406 4.64062C19.8802 4.40104 20 4.10417 20 3.75C20 3.39583 19.8802 3.09896 19.6406 2.85938C19.401 2.61979 19.1042 2.5 18.75 2.5C18.3958 2.5 18.099 2.61979 17.8594 2.85938C17.6198 3.09896 17.5 3.39583 17.5 3.75C17.5 4.10417 17.6198 4.40104 17.8594 4.64062C18.099 4.88021 18.3958 5 18.75 5Z" fill="#A855F7"/>
</svg>
