<svg width="16" height="22" viewBox="0 0 16 22" fill="none" xmlns="http://www.w3.org/2000/svg">
<path d="M2.85756 20.746C2.90926 18.832 2.78036 18.6016 2.64366 18.1758C2.50686 17.7501 1.55056 16.2145 1.21226 15.1175C0.117455 11.5682 1.13776 10.8133 2.49816 9.80685C4.00666 8.69062 6.85196 8.12533 8.26306 8.24771V2.49425C8.26306 1.53093 9.04396 0.75 10.0073 0.75C10.9706 0.75 11.7515 1.53093 11.7515 2.49425V8.71412M11.7515 8.71412L13.6023 10.3584C14.8428 11.5312 15.0955 12.2174 15.1929 12.6328C15.3819 13.4453 15.1237 14.3241 13.9221 16.0647C12.7535 17.6716 11.8155 18.789 11.751 19.7334V20.7469M11.7515 8.71412V12.7803" stroke="#C7C3C3" stroke-width="1.5" stroke-linecap="round" stroke-linejoin="round"/>
</svg>
