<svg width="16" height="16" viewBox="0 0 16 16" fill="none" xmlns="http://www.w3.org/2000/svg">
<path d="M9.33332 9.87566V6.1243C9.33332 4.0275 9.33332 2.9791 8.71645 2.71819C8.09958 2.45728 7.37352 3.19861 5.92153 4.68127C5.16958 5.44909 4.74055 5.61912 3.67068 5.61912C2.73503 5.61912 2.26721 5.61912 1.93115 5.8484C1.23355 6.32436 1.339 7.25466 1.339 7.99999C1.339 8.74532 1.23355 9.67559 1.93115 10.1516C2.26721 10.3809 2.73503 10.3809 3.67068 10.3809C4.74055 10.3809 5.16958 10.5509 5.92153 11.3187C7.37352 12.8014 8.09958 13.5427 8.71645 13.2818C9.33332 13.0209 9.33332 11.9725 9.33332 9.87566Z" stroke="#8D8D8D" stroke-width="1.5" stroke-linecap="round" stroke-linejoin="round"/>
<path d="M11.3333 6C11.7502 6.54645 12 7.24227 12 8C12 8.75773 11.7502 9.45353 11.3333 10" stroke="#8D8D8D" stroke-width="1.5" stroke-linecap="round" stroke-linejoin="round"/>
<path d="M13.3333 4.66666C14.1672 5.57741 14.6666 6.73712 14.6666 7.99999C14.6666 9.26286 14.1672 10.4226 13.3333 11.3333" stroke="#8D8D8D" stroke-width="1.5" stroke-linecap="round" stroke-linejoin="round"/>
</svg>
