<svg width="34" height="34" viewBox="0 0 34 34" fill="none" xmlns="http://www.w3.org/2000/svg">
<path d="M3.33333 33.3333C2.41667 33.3333 1.63194 33.0069 0.979167 32.3542C0.326389 31.7014 0 30.9167 0 30V11.6667C0 10.75 0.326389 9.96528 0.979167 9.3125C1.63194 8.65972 2.41667 8.33333 3.33333 8.33333H11.6667V3.33333C11.6667 2.41667 11.9931 1.63194 12.6458 0.979167C13.2986 0.326389 14.0833 0 15 0H18.3333C19.25 0 20.0347 0.326389 20.6875 0.979167C21.3403 1.63194 21.6667 2.41667 21.6667 3.33333V8.33333H30C30.9167 8.33333 31.7014 8.65972 32.3542 9.3125C33.0069 9.96528 33.3333 10.75 33.3333 11.6667V30C33.3333 30.9167 33.0069 31.7014 32.3542 32.3542C31.7014 33.0069 30.9167 33.3333 30 33.3333H3.33333ZM3.33333 30H30V11.6667H21.6667C21.6667 12.5833 21.3403 13.3681 20.6875 14.0208C20.0347 14.6736 19.25 15 18.3333 15H15C14.0833 15 13.2986 14.6736 12.6458 14.0208C11.9931 13.3681 11.6667 12.5833 11.6667 11.6667H3.33333V30ZM6.66667 26.6667H16.6667V25.9167C16.6667 25.4444 16.5347 25.0069 16.2708 24.6042C16.0069 24.2014 15.6389 23.8889 15.1667 23.6667C14.6111 23.4167 14.0486 23.2292 13.4792 23.1042C12.9097 22.9792 12.3056 22.9167 11.6667 22.9167C11.0278 22.9167 10.4236 22.9792 9.85417 23.1042C9.28472 23.2292 8.72222 23.4167 8.16667 23.6667C7.69444 23.8889 7.32639 24.2014 7.0625 24.6042C6.79861 25.0069 6.66667 25.4444 6.66667 25.9167V26.6667ZM20 24.1667H26.6667V21.6667H20V24.1667ZM11.6667 21.6667C12.3611 21.6667 12.9514 21.4236 13.4375 20.9375C13.9236 20.4514 14.1667 19.8611 14.1667 19.1667C14.1667 18.4722 13.9236 17.8819 13.4375 17.3958C12.9514 16.9097 12.3611 16.6667 11.6667 16.6667C10.9722 16.6667 10.3819 16.9097 9.89583 17.3958C9.40972 17.8819 9.16667 18.4722 9.16667 19.1667C9.16667 19.8611 9.40972 20.4514 9.89583 20.9375C10.3819 21.4236 10.9722 21.6667 11.6667 21.6667ZM20 19.1667H26.6667V16.6667H20V19.1667ZM15 11.6667H18.3333V3.33333H15V11.6667Z" fill="white"/>
</svg>
