<svg width="70" height="70" viewBox="0 0 70 70" fill="none" xmlns="http://www.w3.org/2000/svg">
<path d="M8.83345 69.8697C6.37206 69.8697 4.28447 69.0128 2.57068 67.299C0.856894 65.5853 0 63.4977 0 61.0363V25.5001C0 23.0387 0.856894 20.9511 2.57068 19.2374C4.28447 17.5236 6.37206 16.6667 8.83345 16.6667H23.3333V7.79716C23.3333 5.52419 24.0646 3.65642 25.5272 2.19385C26.9898 0.731284 28.8575 0 31.1305 0H38.7392C41.0122 0 42.88 0.731284 44.3425 2.19385C45.8051 3.65642 46.5364 5.52419 46.5364 7.79716V16.6667H61.0363C63.4977 16.6667 65.5853 17.5236 67.299 19.2374C69.0128 20.9511 69.8697 23.0387 69.8697 25.5001V61.0363C69.8697 63.4977 69.0128 65.5853 67.299 67.299C65.5853 69.0128 63.4977 69.8697 61.0363 69.8697H8.83345V69.8697M14.9349 55.5001H34.9349V54.0001C34.9349 53.0557 34.671 52.1807 34.1432 51.3751C33.6154 50.5696 32.8793 49.9446 31.9349 49.5001C30.8238 49.0001 29.6988 48.6251 28.5599 48.3751C27.421 48.1251 26.2126 48.0001 24.9349 48.0001C23.6571 48.0001 22.4488 48.1251 21.3099 48.3751C20.171 48.6251 19.046 49.0001 17.9349 49.5001C16.9904 49.9446 16.2543 50.5696 15.7265 51.3751C15.1988 52.1807 14.9349 53.0557 14.9349 54.0001V55.5001V55.5001M41.6015 50.5001H54.9349V45.5001H41.6015V50.5001V50.5001M24.9349 45.5001C26.3238 45.5001 27.5043 45.014 28.4765 44.0418C29.4488 43.0696 29.9349 41.889 29.9349 40.5001C29.9349 39.1112 29.4488 37.9307 28.4765 36.9584C27.5043 35.9862 26.3238 35.5001 24.9349 35.5001C23.546 35.5001 22.3654 35.9862 21.3932 36.9584C20.421 37.9307 19.9349 39.1112 19.9349 40.5001C19.9349 41.889 20.421 43.0696 21.3932 44.0418C22.3654 45.014 23.546 45.5001 24.9349 45.5001V45.5001M41.6015 40.5001H54.9349V35.5001H41.6015V40.5001V40.5001M31.6957 23.8044H38.174V8.36241H31.6957V23.8044V23.8044" fill="white"/>
</svg>
